<svg xmlns="http://www.w3.org/2000/svg" xmlns:xlink="http://www.w3.org/1999/xlink" version="1.1" style="" xml:space="preserve" width="398" height="241"><rect id="backgroundrect" width="100%" height="100%" x="0" y="0" fill="none" stroke="none" class="" style=""/>
















<g class="currentLayer" style=""><title>Layer 1</title><g id="svg_1" class="" fill="#ffffff" fill-opacity="1">
	<circle style="" cx="58.01499938964844" cy="98.82499694824219" r="51.0099983215332" id="svg_2" fill="#ffffff" fill-opacity="1"/>
	<path style="" d="M57.324,163.169 C26.442,163.541 1.875,189.313 1.875,220.197 v14.363 c0,3.325 2.696,6.021 6.021,6.021 H108.135 c3.325,0 6.021,-2.696 6.021,-6.021 V219.305 C114.156,188.072 88.646,162.792 57.324,163.169 z" id="svg_3" fill="#ffffff" fill-opacity="1"/>
	<circle style="" cx="187.21499633789062" cy="87.17500305175781" r="55.209999084472656" id="svg_4" fill="#ffffff" fill-opacity="1"/>
	<path style="" d="M186.467,156.806 c-33.42,0.402 -60.006,28.292 -60.006,61.715 v16.039 c0,3.325 2.696,6.021 6.021,6.021 h109.467 c3.325,0 6.021,-2.696 6.021,-6.021 v-17.004 C247.969,183.753 220.363,156.398 186.467,156.806 z" id="svg_5" fill="#ffffff" fill-opacity="1"/>
	<path style="" d="M328.297,128.116 c34.917,0 63.223,-28.308 63.223,-63.229 c0,-34.913 -28.307,-63.221 -63.223,-63.221 c-34.919,0 -63.223,28.308 -63.223,63.221 C265.074,99.80799999999999 293.379,128.116 328.297,128.116 z" id="svg_6" fill="#ffffff" fill-opacity="1"/>
	<path style="" d="M328.296,144.634 L328.296,144.634 c-38.427,0 -69.578,31.151 -69.578,69.578 v20.349 c0,3.325 2.696,6.021 6.021,6.021 h127.114 c3.325,0 6.021,-2.696 6.021,-6.021 v-20.348 C397.875,175.785 366.723,144.634 328.296,144.634 z" id="svg_7" fill="#ffffff" fill-opacity="1"/>
</g><g id="svg_8" class="">
</g><g id="svg_9" class="">
</g><g id="svg_10" class="">
</g><g id="svg_11" class="">
</g><g id="svg_12" class="">
</g><g id="svg_13" class="">
</g><g id="svg_14" class="">
</g><g id="svg_15" class="">
</g><g id="svg_16" class="">
</g><g id="svg_17" class="">
</g><g id="svg_18" class="">
</g><g id="svg_19" class="">
</g><g id="svg_20" class="">
</g><g id="svg_21" class="">
</g><g id="svg_22" class="">
</g></g></svg>